<svg width="59" height="59" viewBox="0 0 59 59" fill="none" xmlns="http://www.w3.org/2000/svg">
<path d="M29.5 52C41.9264 52 52 41.9264 52 29.5C52 17.0736 41.9264 7 29.5 7C17.0736 7 7 17.0736 7 29.5C7 41.9264 17.0736 52 29.5 52Z" fill="white"/>
<path d="M34.2479 20.9113C34.2479 24.756 37.4808 28.0092 33.6667 28.0092C29.8526 28.0092 26.8013 24.9039 26.8013 21.0222C26.8013 17.1405 29.8889 14.0721 33.6667 14.0721C35.0107 14.0721 36.282 14.4787 37.3355 15.1442C35.6645 18.6192 34.2479 18.4344 34.2479 20.9113V20.9113Z" fill="#251657"/>
<path d="M34.9017 24.9409C37.2891 24.9409 39.2244 22.9712 39.2244 20.5416C39.2244 18.112 37.2891 16.1423 34.9017 16.1423C32.5144 16.1423 30.5791 18.112 30.5791 20.5416C30.5791 22.9712 32.5144 24.9409 34.9017 24.9409Z" fill="white"/>
<path d="M40.4231 19.9131L38.7158 22.5009H43.2927L40.4231 19.9131Z" fill="#251657"/>
<path d="M37.6624 20.098C38.1439 20.098 38.5342 19.7007 38.5342 19.2107C38.5342 18.7207 38.1439 18.3235 37.6624 18.3235C37.1809 18.3235 36.7906 18.7207 36.7906 19.2107C36.7906 19.7007 37.1809 20.098 37.6624 20.098Z" fill="#251657"/>
<path d="M33.4124 36.0684C37.1438 36.0684 40.1688 32.9899 40.1688 29.1923C40.1688 25.3947 37.1438 22.3161 33.4124 22.3161C29.6809 22.3161 26.656 25.3947 26.656 29.1923C26.656 32.9899 29.6809 36.0684 33.4124 36.0684V36.0684Z" fill="#251657"/>
<path d="M40.1325 29.7837C37.9893 44.8669 18.9188 43.3142 18.9188 43.3142L25.6389 27.4177" fill="#251657"/>
<path d="M27.7457 17.6211L14.015 41.6876L17.9744 40.6525L11 53L16.9209 51.0407L19.1731 43.3143L33.1944 35.4399" fill="#251657"/>
<path d="M34.5748 29.414C34.5748 29.414 34.1752 35.6987 25.203 38.3604L24.9124 38.5822C24.9124 38.5822 34.5748 36.9926 36.1004 28.8595L34.5748 29.414Z" fill="white"/>
</svg>
